#!OML:ASF I:\salsa\salsa 7_09\Patient 1\Session 1\dancerfemale.ASF
:FULLY-SPECIFIED
:DEGREES
2059
root 3.70006 14.4754 -10.6463 -377.871 318.522 3.03518
lowerback 10.144 3.04935 -3.32129
upperback 1.19203 3.73319 1.24945
thorax -4.73525 1.9133 2.63897
lowerneck 0.0558472 -2.19907 -11.7306
upperneck 25.98 -1.71542 -3.63169
head 8.24081 -2.40838 0.612472
rclavicle 8.94531e-015 5.96354e-015
rhumerus -3.99396 -32.136 -14.6438
rradius 110.633
rwrist -8.53969
rhand 10.8188 40.8104
rfingers 7.12502
rthumb 35.9025 14.47
lclavicle 8.94531e-015 5.96354e-015
lhumerus 8.23534 -26.3297 82.9755
lradius 97.8662
lwrist 56.0357
lhand 23.4909 48.3553
lfingers 7.12502
lthumb 47.7721 70.6738
rfemur -12.1409 -31.1327 27.4059
rtibia 58.9233
rfoot -23.3978 -9.96275
rtoes -22.8499
lfemur -49.8975 2.44201 -11.9589
ltibia 45.0157
lfoot 24.1164 10.0874
ltoes 17.495
2060
root 3.69761 14.3301 -10.7957 -378.619 319.596 2.95085
lowerback 10.1606 2.86726 -3.38194
upperback 1.46364 3.48706 1.33463
thorax -4.45066 1.78463 2.8054
lowerneck -0.128557 -1.89154 -12.4749
upperneck 26.7331 -1.38471 -2.65256
head 8.53971 -2.27861 1.08197
rclavicle -5.47652e-014 1.43125e-014
rhumerus -3.31049 -32.0394 -14.4576
rradius 111.034
rwrist -8.25571
rhand 12.5057 40.3518
rfingers 7.12502
rthumb 37.4988 14.4179
lclavicle -5.47652e-014 1.43125e-014
lhumerus 8.68608 -25.3224 83.0875
lradius 97.4382
lwrist 55.8403
lhand 22.7067 48.099
lfingers 7.12502
lthumb 47.0477 70.7441
rfemur -12.7707 -32.4667 27.4191
rtibia 60.8238
rfoot -24.0133 -10.0309
rtoes -22.5107
lfemur -49.483 2.06674 -12.2022
ltibia 43.0369
lfoot 23.9403 10.3887
ltoes 17.2792
2061
root 3.69267 14.1777 -10.9431 -378.77 320.537 2.1959
lowerback 10.0964 2.66604 -3.03902
upperback 1.618 3.27082 1.60637
thorax -4.23391 1.6687 2.93462
lowerneck 0.380604 -1.69432 -11.6777
upperneck 26.6058 -1.07227 -3.46391
head 8.37173 -2.11656 0.705103
rclavicle -2.14687e-014 -1.66979e-014
rhumerus -2.84688 -31.3462 -14.0096
rradius 111.375
rwrist -9.1157
rhand 13.1154 39.6989
rfingers 7.12502
rthumb 38.0748 13.9201
lclavicle -2.14687e-014 -1.66979e-014
lhumerus 9.13622 -24.4907 83.1635
lradius 96.9851
lwrist 56.0028
lhand 22.0718 48.3381
lfingers 7.12502
lthumb 46.46 71.2386
rfemur -13.6279 -33.7382 28.2456
rtibia 62.6467
rfoot -24.4986 -10.3602
rtoes -22.4417
lfemur -49.2615 1.71415 -11.8937
ltibia 41.1253
lfoot 23.6374 10.6513
ltoes 17.1025
2062
root 3.68461 14.022 -11.086 -378.942 321.427 1.29106
lowerback 10.1413 2.45517 -2.59402
upperback 1.78879 3.0489 1.91631
thorax -4.0576 1.54897 3.04175
lowerneck 0.664905 -1.48826 -11.4551
upperneck 26.6743 -0.788891 -3.6858
head 8.32911 -1.98184 0.615718
rclavicle -8.10048e-015 1.23246e-014
rhumerus -2.36517 -30.9547 -13.4676
rradius 111.972
rwrist -9.71326
rhand 15.2294 38.7041
rfingers 7.12502
rthumb 40.0676 13.4985
lclavicle -8.10048e-015 1.23246e-014
lhumerus 9.63304 -23.6789 83.2078
lradius 96.4173
lwrist 56.1363
lhand 21.8433 48.4412
lfingers 7.12502
lthumb 46.2482 71.4317
rfemur -14.4345 -34.876 29.2073
rtibia 64.4481
rfoot -24.7152 -10.8361
rtoes -22.8059
lfemur -48.8833 1.44507 -11.549
ltibia 39.2355
lfoot 23.199 11.0368
ltoes 16.8289
2063
root 3.67846 13.8679 -11.22 -379.603 322.73 0.619793
lowerback 10.4388 2.11567 -2.31651
upperback 2.10248 2.62468 2.11908
thorax -3.86053 1.32744 3.15369
lowerneck 0.806397 -1.28181 -11.4373
upperneck 26.718 -0.52189 -3.66316
head 8.3079 -1.8514 0.640239
rclavicle 7.47927e-014 -6.48038e-014
rhumerus -1.71001 -30.781 -13.0326
rradius 112.521
rwrist -9.62545
rhand 17.5162 37.8249
rfingers 7.12502
rthumb 42.2146 13.3072
lclavicle 7.47927e-014 -6.48038e-014
lhumerus 10.2092 -22.7608 83.2672
lradius 95.8294
lwrist 56.2671
lhand 21.7493 48.4069
lfingers 7.12502
lthumb 46.161 71.4341
rfemur -14.8936 -36.2559 29.5027
rtibia 66.3211
rfoot -24.8704 -11.1049
rtoes -22.8228
lfemur -48.125 0.902285 -11.7259
ltibia 37.3502
lfoot 22.7972 11.7651
ltoes 17.1725
2064
root 3.67315 13.7119 -11.3514 -380.609 324.339 0.208421
lowerback 10.9218 1.75526 -2.37815
upperback 2.47895 2.12859 2.25817
thorax -3.705 1.07256 3.39861
lowerneck 1.03207 -1.15743 -11.1788
upperneck 26.5877 -0.366795 -3.81346
head 8.21119 -1.75418 0.560864
rclavicle -1.17382e-013 -5.1684e-015
rhumerus -1.15721 -30.1976 -12.5816
rradius 112.438
rwrist -8.52515
rhand 16.222 37.8128
rfingers 7.12502
rthumb 41.0007 12.8966
lclavicle -1.17382e-013 -5.1684e-015
lhumerus 10.7268 -21.8828 83.3897
lradius 95.379
lwrist 56.5969
lhand 21.9594 49.0029
lfingers 7.12502
lthumb 46.3559 71.9478
rfemur -15.1692 -37.8581 29.2452
rtibia 68.3219
rfoot -25.0288 -11.1713
rtoes -22.257
lfemur -47.177 0.19965 -12.3528
ltibia 35.5887
lfoot 22.5477 12.2409
ltoes 17.1066
